<svg aria-hidden="true" style="position: absolute; width: 0; height: 0; overflow: hidden;" version="1.1" xmlns="http://www.w3.org/2000/svg" xmlns:xlink="http://www.w3.org/1999/xlink">
    <defs>
        <symbol id="download" viewBox="0 0 24 24">
			<path d="M19 12v7H5v-7H3v7c0 1.1.9 2 2 2h14c1.1 0 2-.9 2-2v-7h-2zm-6 .67l2.59-2.58L17 11.5l-5 5-5-5 1.41-1.41L11 12.67V3h2z"/>
			<path fill="none" d="M0 0h24v24H0z"/>
        </symbol>
        <symbol id="upload" viewBox="0 0 24 24">
			<path d="M4 15h2v3h12v-3h2v3c0 1.1-.9 2-2 2H6c-1.1 0-2-.9-2-2m4.41-7.59L11 7.83V16h2V7.83l2.59 2.59L17 9l-5-5-5 5 1.41 1.41z"></path>
        </symbol>

        <symbol id="merge" viewBox="0 0 24 24">
            <path fill="none" d="M0 0h24v24H0V0z"></path><path d="M19 2H5c-1.1 0-2 .9-2 2v14c0 1.1.9 2 2 2h4l3 3 3-3h4c1.1 0 2-.9 2-2V4c0-1.1-.9-2-2-2zm0 16h-4.83l-.59.59L12 20.17l-1.59-1.59-.58-.58H5V4h14v14zm-7-1l1.88-4.12L18 11l-4.12-1.88L12 5l-1.88 4.12L6 11l4.12 1.88z"></path>
        </symbol>
        <symbol id="trash" viewBox="0 0 24 24">
			<path d="M15 4V3H9v1H4v2h1v13c0 1.1.9 2 2 2h10c1.1 0 2-.9 2-2V6h1V4h-5zm2 15H7V6h10v13z"></path><path d="M9 8h2v9H9zm4 0h2v9h-2z"></path>
        </symbol>
    </defs>
</svg>