<svg aria-hidden="true" style="position: absolute; width: 0; height: 0; overflow: hidden;" version="1.1" xmlns="http://www.w3.org/2000/svg" xmlns:xlink="http://www.w3.org/1999/xlink">
    <defs>
        <symbol id="save" viewBox="0 0 24 24">
            <path d="M21 7v12q0 .825-.587 1.413Q19.825 21 19 21H5q-.825 0-1.413-.587Q3 19.825 3 19V5q0-.825.587-1.413Q4.175 3 5 3h12Zm-2 .85L16.15 5H5v14h14ZM12 18q1.25 0 2.125-.875T15 15q0-1.25-.875-2.125T12 12q-1.25 0-2.125.875T9 15q0 1.25.875 2.125T12 18Zm-6-8h9V6H6ZM5 7.85V19 5Z"/>
        </symbol>
        <symbol id="download" viewBox="0 0 24 24">
			<path d="M19 12v7H5v-7H3v7c0 1.1.9 2 2 2h14c1.1 0 2-.9 2-2v-7h-2zm-6 .67l2.59-2.58L17 11.5l-5 5-5-5 1.41-1.41L11 12.67V3h2z"/>
			<path fill="none" d="M0 0h24v24H0z"/>
        </symbol>
        <symbol id="library_add" viewBox="0 0 24 24">
            <path d="M13 14h2v-3h3V9h-3V6h-2v3h-3v2h3Zm-5 4q-.825 0-1.412-.587Q6 16.825 6 16V4q0-.825.588-1.413Q7.175 2 8 2h12q.825 0 1.413.587Q22 3.175 22 4v12q0 .825-.587 1.413Q20.825 18 20 18Zm0-2h12V4H8v12Zm-4 6q-.825 0-1.412-.587Q2 20.825 2 20V6h2v14h14v2ZM8 4v12V4Z"/>
        </symbol>
        <symbol id="upload" viewBox="0 0 24 24">
			<path d="M4 15h2v3h12v-3h2v3c0 1.1-.9 2-2 2H6c-1.1 0-2-.9-2-2m4.41-7.59L11 7.83V16h2V7.83l2.59 2.59L17 9l-5-5-5 5 1.41 1.41z"></path>
        </symbol>
        <symbol id="expand" viewBox="0 0 48 48">
			<path d="m24 30.75-12-12 2.15-2.15L24 26.5l9.85-9.85L36 18.8Z"/>
        </symbol>
        

        <symbol id="merge" viewBox="0 0 24 24">
            <path fill="none" d="M0 0h24v24H0V0z"></path><path d="M19 2H5c-1.1 0-2 .9-2 2v14c0 1.1.9 2 2 2h4l3 3 3-3h4c1.1 0 2-.9 2-2V4c0-1.1-.9-2-2-2zm0 16h-4.83l-.59.59L12 20.17l-1.59-1.59-.58-.58H5V4h14v14zm-7-1l1.88-4.12L18 11l-4.12-1.88L12 5l-1.88 4.12L6 11l4.12 1.88z"></path>
        </symbol>
        <symbol id="trash" viewBox="0 0 24 24">
			<path d="M15 4V3H9v1H4v2h1v13c0 1.1.9 2 2 2h10c1.1 0 2-.9 2-2V6h1V4h-5zm2 15H7V6h10v13z"></path><path d="M9 8h2v9H9zm4 0h2v9h-2z"></path>
        </symbol>
    </defs>
</svg>