<svg aria-hidden="true" style="position: absolute; width: 0; height: 0; overflow: hidden;" version="1.1" xmlns="http://www.w3.org/2000/svg" xmlns:xlink="http://www.w3.org/1999/xlink">
	<defs>
		<symbol id="save" viewBox="0 0 24 24">
			<path d="M21 7v12q0 .825-.587 1.413Q19.825 21 19 21H5q-.825 0-1.413-.587Q3 19.825 3 19V5q0-.825.587-1.413Q4.175 3 5 3h12Zm-2 .85L16.15 5H5v14h14ZM12 18q1.25 0 2.125-.875T15 15q0-1.25-.875-2.125T12 12q-1.25 0-2.125.875T9 15q0 1.25.875 2.125T12 18Zm-6-8h9V6H6ZM5 7.85V19 5Z"/>
		</symbol>
		<symbol id="download" viewBox="0 0 24 24">
			<path d="M19 12v7H5v-7H3v7c0 1.1.9 2 2 2h14c1.1 0 2-.9 2-2v-7h-2zm-6 .67l2.59-2.58L17 11.5l-5 5-5-5 1.41-1.41L11 12.67V3h2z"/>
			<path fill="none" d="M0 0h24v24H0z"/>
		</symbol>
		<symbol id="library_add" viewBox="0 0 24 24">
			<path d="M13 14h2v-3h3V9h-3V6h-2v3h-3v2h3Zm-5 4q-.825 0-1.412-.587Q6 16.825 6 16V4q0-.825.588-1.413Q7.175 2 8 2h12q.825 0 1.413.587Q22 3.175 22 4v12q0 .825-.587 1.413Q20.825 18 20 18Zm0-2h12V4H8v12Zm-4 6q-.825 0-1.412-.587Q2 20.825 2 20V6h2v14h14v2ZM8 4v12V4Z"/>
		</symbol>
		<symbol id="upload" viewBox="0 0 24 24">
			<path d="M4 15h2v3h12v-3h2v3c0 1.1-.9 2-2 2H6c-1.1 0-2-.9-2-2m4.41-7.59L11 7.83V16h2V7.83l2.59 2.59L17 9l-5-5-5 5 1.41 1.41z"></path>
		</symbol>
		<symbol id="expand" viewBox="0 0 48 48">
			<path d="m24 30.75-12-12 2.15-2.15L24 26.5l9.85-9.85L36 18.8Z"/>
		</symbol>
		<symbol id="language" viewBox="0 0 48 48">
			<path d="M24 44q-4.2 0-7.85-1.575Q12.5 40.85 9.8 38.15q-2.7-2.7-4.25-6.375Q4 28.1 4 23.9t1.55-7.825Q7.1 12.45 9.8 9.75t6.35-4.225Q19.8 4 24 4q4.2 0 7.85 1.525Q35.5 7.05 38.2 9.75q2.7 2.7 4.25 6.325Q44 19.7 44 23.9t-1.55 7.875Q40.9 35.45 38.2 38.15t-6.35 4.275Q28.2 44 24 44Zm0-2.9q1.75-1.8 2.925-4.125Q28.1 34.65 28.85 31.45H19.2q.7 3 1.875 5.4Q22.25 39.25 24 41.1Zm-4.25-.6q-1.25-1.9-2.15-4.1-.9-2.2-1.5-4.95H8.6Q10.5 35 13 37.025q2.5 2.025 6.75 3.475Zm8.55-.05q3.6-1.15 6.475-3.45 2.875-2.3 4.625-5.55h-7.45q-.65 2.7-1.525 4.9-.875 2.2-2.125 4.1Zm-20.7-12h7.95q-.15-1.35-.175-2.425-.025-1.075-.025-2.125 0-1.25.05-2.225.05-.975.2-2.175h-8q-.35 1.2-.475 2.15T7 23.9q0 1.3.125 2.325.125 1.025.475 2.225Zm11.05 0H29.4q.2-1.55.25-2.525.05-.975.05-2.025 0-1-.05-1.925T29.4 19.5H18.65q-.2 1.55-.25 2.475-.05.925-.05 1.925 0 1.05.05 2.025.05.975.25 2.525Zm13.75 0h8q.35-1.2.475-2.225Q41 25.2 41 23.9q0-1.3-.125-2.25T40.4 19.5h-7.95q.15 1.75.2 2.675.05.925.05 1.725 0 1.1-.075 2.075-.075.975-.225 2.475Zm-.5-11.95h7.5q-1.65-3.45-4.525-5.75Q32 8.45 28.25 7.5q1.25 1.85 2.125 4t1.525 5Zm-12.7 0h9.7q-.55-2.65-1.85-5.125T24 7q-1.6 1.35-2.7 3.55-1.1 2.2-2.1 5.95Zm-10.6 0h7.55q.55-2.7 1.4-4.825.85-2.125 2.15-4.125-3.75.95-6.55 3.2T8.6 16.5Z"/>
		</symbol>
		<symbol id="coffee" viewBox="0 0 48 48">
			<path d="M8 42v-3h31.95v3Zm7.55-6q-3.15 0-5.35-2.175Q8 31.65 8 28.5V6h33q1.25 0 2.125.875T44 9v8q0 1.25-.875 2.125T41 20h-4.8v8.5q0 3.15-2.2 5.325Q31.8 36 28.65 36Zm0-3h13.1q1.8 0 3.175-1.375Q33.2 30.25 33.2 28.5V9H11v19.5q0 1.75 1.4 3.125T15.55 33ZM36.2 17H41V9h-4.8Zm-14.1 4Z"/>
		</symbol>
		<symbol id="darkmode" viewBox="0 0 24 24">
			<path d="M9.27,4.49c-1.63,7.54,3.75,12.41,7.66,13.8C15.54,19.38,13.81,20,12,20c-4.41,0-8-3.59-8-8C4,8.55,6.2,5.6,9.27,4.49 M11.99,2.01C6.4,2.01,2,6.54,2,12c0,5.52,4.48,10,10,10c3.71,0,6.93-2.02,8.66-5.02c-7.51-0.25-12.09-8.43-8.32-14.97 C12.22,2.01,12.11,2.01,11.99,2.01L11.99,2.01z"/>
		</symbol>
		<symbol id="lightmode" viewBox="0 0 24 24">
			<path d="M12,9c1.65,0,3,1.35,3,3s-1.35,3-3,3s-3-1.35-3-3S10.35,9,12,9 M12,7c-2.76,0-5,2.24-5,5s2.24,5,5,5s5-2.24,5-5 S14.76,7,12,7L12,7z M2,13l2,0c0.55,0,1-0.45,1-1s-0.45-1-1-1l-2,0c-0.55,0-1,0.45-1,1S1.45,13,2,13z M20,13l2,0c0.55,0,1-0.45,1-1 s-0.45-1-1-1l-2,0c-0.55,0-1,0.45-1,1S19.45,13,20,13z M11,2v2c0,0.55,0.45,1,1,1s1-0.45,1-1V2c0-0.55-0.45-1-1-1S11,1.45,11,2z M11,20v2c0,0.55,0.45,1,1,1s1-0.45,1-1v-2c0-0.55-0.45-1-1-1C11.45,19,11,19.45,11,20z M5.99,4.58c-0.39-0.39-1.03-0.39-1.41,0 c-0.39,0.39-0.39,1.03,0,1.41l1.06,1.06c0.39,0.39,1.03,0.39,1.41,0s0.39-1.03,0-1.41L5.99,4.58z M18.36,16.95 c-0.39-0.39-1.03-0.39-1.41,0c-0.39,0.39-0.39,1.03,0,1.41l1.06,1.06c0.39,0.39,1.03,0.39,1.41,0c0.39-0.39,0.39-1.03,0-1.41 L18.36,16.95z M19.42,5.99c0.39-0.39,0.39-1.03,0-1.41c-0.39-0.39-1.03-0.39-1.41,0l-1.06,1.06c-0.39,0.39-0.39,1.03,0,1.41 s1.03,0.39,1.41,0L19.42,5.99z M7.05,18.36c0.39-0.39,0.39-1.03,0-1.41c-0.39-0.39-1.03-0.39-1.41,0l-1.06,1.06 c-0.39,0.39-0.39,1.03,0,1.41s1.03,0.39,1.41,0L7.05,18.36z"/>
		</symbol>

	</defs>
</svg>